<svg id="Calque_1" data-name="Calque 1" xmlns="http://www.w3.org/2000/svg" viewBox="0 0 193.62 156.23">
  <path d="M422,523.76a66.7,66.7,0,1,0,66.7,66.7A66.7,66.7,0,0,0,422,523.76ZM422,635a44.52,44.52,0,1,1,44.52-44.52A44.51,44.51,0,0,1,422,635Z" transform="translate(-324.3 -512.86)" style="fill: #fff"/>
  <g id="Calque_3" data-name="Calque 3">
    <path d="M515.87,514.72s-7.15-8-10.47,9v61.69s3.83,3.32,3.58,7.66-4.85,69.7-3.58,70.46,9.45,11,12.51,1.54Z" transform="translate(-324.3 -512.86)" style="fill: #fff"/>
    <path d="M337.06,564.68s6.47-4.42,7-6-1.36-42.55-1.36-42.55h-1L340.6,549h-1.83l-1.71-32.85h-1L335,549h-1.7l-1-32.85h-.85l-.85,32.34h-2.22L327,516.17h-1.19l-1.53,39.49,1,3.74,6.59,5.88q-1.85,47.87-3.7,95.74a10.11,10.11,0,0,0,4.09,4.26h4.08s4.26-3,4.26-3.47S337.06,564.68,337.06,564.68Z" transform="translate(-324.3 -512.86)" style="fill: #fff"/>
  </g>
  <circle cx="97.71" cy="77.6" r="37.88" style="fill: #fff"/>
</svg>
