<svg id="Calque_2" data-name="Calque 2" xmlns="http://www.w3.org/2000/svg" viewBox="0 0 106.28 112.69">
  <g>
    <path d="M367.53,276.54l-.22-.37S367.89,279.28,367.53,276.54Z" transform="translate(-333.08 -271.73)" style="fill: #fff"/>
    <path d="M433.58,346.73a44.51,44.51,0,0,0-.69-18.64h0c-.6-6.6-8.2-17.14-12.64-22.81-2.2-4.13-4-7.71-4.72-9.53,0,0-2.71-1.62-4.36-.68-1,.54-1.59,2-1.08,5.11l2.42,5.69,11,29s4.12,9.77,6.1,12.77c0,1.56,0,2.79-2,2.38l-6.68-10.38s-1.32-.68-1.15,0,5.95,14.64,6.47,16.51-2.05,4.43-2.9,2.38-8-15.49-8-15.49-1.7-1.19-2,.68l.68,3.58s3.4,13.62,2.21,14.3-2.55,2-3.06.34-3.92-18.73-4.94-18.9a2.62,2.62,0,0,0-1.87.51s-.85,20.6-2.38,21.45-3.58.17-3.58-.85V331.83l-1-.85s-3.74,13.79-5.27,14.47-1.71-.68-1.71-.68l1.19-17.71s7.32-13.1,7.15-15.15-27.06-40-27.06-40-7-1.36-6.3,3.41c.07.5.13.89.17,1.22l21.62,36.91s.85,8-2.89,5.61-35.58-28.25-36.09-28.25-4.6,1-3.23,5.1L375.36,326s1.7,1.7,1,2.22-1.19,1.7-2.21,1.19l-37.45-19.07s-5.1,1-3.23,5.11l35.74,25.19s1.2.34.17,1-28.08-9-28.08-9-2.38,1.19-2.21,3.41,9.7,8.17,9.7,8.17l22.64,11.91,14.77,9.36,11.61,10.56,5.11,8.34s34.72-9.71,36.42-12.09C439.36,372.34,435.3,373.29,433.58,346.73Z" transform="translate(-333.08 -271.73)" style="fill: #fff"/>
  </g>
</svg>
