<svg id="Calque_1" data-name="Calque 1" xmlns="http://www.w3.org/2000/svg" viewBox="0 0 266.25 245.84">
  <path d="M489.28,257.09v-28h-25.7l-56.81-37.5L350,229.07H324.79v28H273.65V437.41H389.77V381.24h.08a19.38,19.38,0,0,1,38.65,0h.08v56.17H539.9V257.09ZM324.79,357.62a8.8,8.8,0,0,1-8.81,8.81h-8a8.81,8.81,0,0,1-8.81-8.81v-8a8.81,8.81,0,0,1,8.81-8.81h8a8.8,8.8,0,0,1,8.81,8.81Zm0-49.84a8.81,8.81,0,0,1-8.81,8.81h-8a8.82,8.82,0,0,1-8.81-8.81v-8a8.81,8.81,0,0,1,8.81-8.81h8a8.8,8.8,0,0,1,8.81,8.81Zm48.83,49.84a8.8,8.8,0,0,1-8.81,8.81h-8a8.81,8.81,0,0,1-8.81-8.81v-8a8.81,8.81,0,0,1,8.81-8.81h8a8.8,8.8,0,0,1,8.81,8.81Zm0-49.84a8.81,8.81,0,0,1-8.81,8.81h-8a8.82,8.82,0,0,1-8.81-8.81v-8a8.81,8.81,0,0,1,8.81-8.81h8a8.8,8.8,0,0,1,8.81,8.81Zm33.15-38.12a18.77,18.77,0,1,1,18.77-18.76A18.76,18.76,0,0,1,406.77,269.66Zm59.34,88a8.8,8.8,0,0,1-8.81,8.81h-8a8.8,8.8,0,0,1-8.81-8.81v-8a8.8,8.8,0,0,1,8.81-8.81h8a8.8,8.8,0,0,1,8.81,8.81Zm0-49.84a8.81,8.81,0,0,1-8.81,8.81h-8a8.81,8.81,0,0,1-8.81-8.81v-8a8.8,8.8,0,0,1,8.81-8.81h8a8.8,8.8,0,0,1,8.81,8.81Zm48.83,49.84a8.8,8.8,0,0,1-8.81,8.81h-8a8.8,8.8,0,0,1-8.81-8.81v-8a8.8,8.8,0,0,1,8.81-8.81h8a8.8,8.8,0,0,1,8.81,8.81Zm0-49.84a8.81,8.81,0,0,1-8.81,8.81h-8a8.81,8.81,0,0,1-8.81-8.81v-8a8.8,8.8,0,0,1,8.81-8.81h8a8.8,8.8,0,0,1,8.81,8.81Z" transform="translate(-273.65 -191.57)" style="fill: #fff"/>
</svg>
