<svg id="Calque_3" data-name="Calque 3" xmlns="http://www.w3.org/2000/svg" viewBox="0 0 215.04 179.69">
  <path d="M408,526.21s26.22-23.83,50.73,7.83c0,0,13.4-32.34,74.27-27.57v17.36s-36.49-8.85-60.66,23.49c0,0,28.6,21.11,5.11,49.7Z" transform="translate(-318 -505.99)" style="fill: #fff"/>
  <polyline points="66.89 8.99 170.72 112.14 156.08 126.44 53.27 23.63" style="fill: #fff"/>
  <g>
    <path d="M373.43,546.36,365,550.68v0a3.75,3.75,0,0,0,3.34,6.55v0l8.48-4.32a3.74,3.74,0,0,0-3.36-6.59Z" transform="translate(-318 -505.99)" style="fill: #fff"/>
    <path d="M350.68,558l-8.48,4.32v0a3.76,3.76,0,0,0,3.34,6.56v0l8.48-4.32a3.74,3.74,0,0,0-3.36-6.6Z" transform="translate(-318 -505.99)" style="fill: #fff"/>
    <path d="M327.93,569.54l-8.48,4.32v0a3.76,3.76,0,0,0,3.34,6.56v0l8.48-4.32a3.74,3.74,0,0,0-3.36-6.6Z" transform="translate(-318 -505.99)" style="fill: #fff"/>
  </g>
  <g>
    <path d="M383,558l-7.7,5.59,0,0a3.75,3.75,0,0,0,4.32,6l0,0,7.69-5.59a3.74,3.74,0,0,0-4.35-6Z" transform="translate(-318 -505.99)" style="fill: #fff"/>
    <path d="M362.31,573l-7.69,5.59v0a3.75,3.75,0,0,0,4.32,6l0,0,7.7-5.59a3.74,3.74,0,0,0-4.36-6Z" transform="translate(-318 -505.99)" style="fill: #fff"/>
    <path d="M341.66,588l-7.7,5.59v0a3.76,3.76,0,0,0,4.33,6v0L346,594a3.74,3.74,0,0,0-4.35-6Z" transform="translate(-318 -505.99)" style="fill: #fff"/>
  </g>
  <g>
    <path d="M395.75,568.62l-7.5,5.86v0a3.76,3.76,0,0,0,4.53,5.8l0,0,7.49-5.86a3.74,3.74,0,0,0-4.55-5.84Z" transform="translate(-318 -505.99)" style="fill: #fff"/>
    <path d="M375.62,584.35l-7.49,5.85v0a3.76,3.76,0,0,0,4.53,5.8v0l7.5-5.86a3.74,3.74,0,0,0-4.56-5.83Z" transform="translate(-318 -505.99)" style="fill: #fff"/>
    <path d="M355.5,600.07l-7.5,5.85,0,0a3.76,3.76,0,0,0,4.53,5.8v0l7.5-5.86a3.74,3.74,0,0,0-4.56-5.83Z" transform="translate(-318 -505.99)" style="fill: #fff"/>
  </g>
  <g>
    <path d="M459.14,630.25l-4.32,8.48h0a3.75,3.75,0,0,1-6.55-3.34h0l4.32-8.48a3.74,3.74,0,0,1,6.6,3.36Z" transform="translate(-318 -505.99)" style="fill: #fff"/>
    <path d="M447.55,653l-4.32,8.48h0a3.76,3.76,0,0,1-6.56-3.34h0l4.32-8.48a3.74,3.74,0,0,1,6.6,3.36Z" transform="translate(-318 -505.99)" style="fill: #fff"/>
    <path d="M436,675.75l-4.32,8.48h0a3.76,3.76,0,0,1-6.56-3.34h0l4.32-8.48a3.74,3.74,0,0,1,6.6,3.36Z" transform="translate(-318 -505.99)" style="fill: #fff"/>
  </g>
  <g>
    <path d="M447.48,620.71l-5.59,7.7,0,0a3.75,3.75,0,0,1-5.95-4.32l0,0,5.59-7.69a3.74,3.74,0,0,1,6,4.35Z" transform="translate(-318 -505.99)" style="fill: #fff"/>
    <path d="M432.47,641.37l-5.59,7.69h0a3.75,3.75,0,0,1-5.95-4.32l0,0,5.59-7.7a3.74,3.74,0,0,1,6,4.36Z" transform="translate(-318 -505.99)" style="fill: #fff"/>
    <path d="M417.46,662l-5.59,7.7h0a3.76,3.76,0,0,1-6-4.33h0l5.59-7.7a3.74,3.74,0,0,1,6,4.35Z" transform="translate(-318 -505.99)" style="fill: #fff"/>
  </g>
  <g>
    <path d="M434.69,608.46l-5.86,7.5,0,0a3.76,3.76,0,0,1-5.8-4.53h0l5.85-7.5a3.74,3.74,0,0,1,5.84,4.56Z" transform="translate(-318 -505.99)" style="fill: #fff"/>
    <path d="M419,628.58l-5.86,7.5,0,0a3.76,3.76,0,0,1-5.8-4.53h0l5.85-7.5a3.74,3.74,0,0,1,5.84,4.56Z" transform="translate(-318 -505.99)" style="fill: #fff"/>
    <path d="M403.25,648.7l-5.86,7.5,0,0a3.76,3.76,0,0,1-5.8-4.53h0l5.86-7.5a3.74,3.74,0,0,1,5.84,4.56Z" transform="translate(-318 -505.99)" style="fill: #fff"/>
  </g>
  <g>
    <path d="M405,581.9l-6.84,6.61h0a3.76,3.76,0,0,0,5.11,5.3h0l6.85-6.61A3.74,3.74,0,0,0,405,581.9Z" transform="translate(-318 -505.99)" style="fill: #fff"/>
    <path d="M386.67,599.63l-6.85,6.61,0,0a3.75,3.75,0,0,0,5.11,5.29v0l6.85-6.61a3.74,3.74,0,0,0-5.14-5.33Z" transform="translate(-318 -505.99)" style="fill: #fff"/>
    <path d="M368.3,617.37,361.45,624l0,0a3.75,3.75,0,0,0,5.11,5.29l0,0,6.84-6.61a3.74,3.74,0,0,0-5.14-5.33Z" transform="translate(-318 -505.99)" style="fill: #fff"/>
  </g>
  <g>
    <path d="M418.65,592l-6.49,7,0,0a3.76,3.76,0,0,0,5.38,5h0l6.49-7a3.74,3.74,0,0,0-5.42-5Z" transform="translate(-318 -505.99)" style="fill: #fff"/>
    <path d="M401.24,610.64l-6.49,7h0a3.75,3.75,0,0,0,5.38,5v0l6.49-7a3.74,3.74,0,0,0-5.41-5.05Z" transform="translate(-318 -505.99)" style="fill: #fff"/>
    <path d="M383.82,629.31l-6.49,7,0,0a3.76,3.76,0,0,0,5.38,5h0l6.49-7a3.74,3.74,0,0,0-5.42-5.05Z" transform="translate(-318 -505.99)" style="fill: #fff"/>
  </g>
</svg>
