<svg id="Calque_2" data-name="Calque 2" xmlns="http://www.w3.org/2000/svg" viewBox="0 0 354.78 353.87">
  <path d="M288.61,691.15a61.71,61.71,0,0,0,61.71-61.71H226.89A61.71,61.71,0,0,0,288.61,691.15Z" transform="translate(-226.89 -411.32)" style="fill: #fff"/>
  <path d="M520,691.15a61.71,61.71,0,0,0,61.71-61.71H458.24A61.71,61.71,0,0,0,520,691.15Z" transform="translate(-226.89 -411.32)" style="fill: #fff"/>
  <path d="M285.83,501.19c-1.53.51-43.92,137.87-43.92,137.87h95C332.84,640,298.88,488,285.83,501.19ZM249.48,626.85s34.92-113.17,36.18-113.59c10.75-10.85,38.73,114.39,42.08,113.59Z" transform="translate(-226.89 -411.32)" style="fill: #fff"/>
  <path d="M516.38,503.15c-1.53.51-43.91,137.87-43.91,137.87h95C563.39,642,529.43,490,516.38,503.15ZM480,628.81S515,515.64,516.21,515.21c10.75-10.85,38.73,114.39,42.08,113.6Z" transform="translate(-226.89 -411.32)" style="fill: #fff"/>
  <path d="M533.32,472.4c-21.83,33.86-38.35-47-107.58-14.95h0l-.17-.22c-.19-.28-.39-.55-.59-.81l-.27-.35c-.22-.27-.43-.53-.65-.78l-.23-.27c-.31-.34-.62-.68-.94-1l-.09-.09c-.29-.29-.59-.58-.9-.85l-.28-.25-.8-.68-.27-.22a24.77,24.77,0,0,0-2.26-1.58l-.29-.18-.92-.53-.34-.18-1.05-.53-.19-.09c-.42-.19-.85-.37-1.28-.54l-.29-.11-1-.37-.4-.12-.17-.05.16-4.16C429,432.6,405,411.32,405,411.32c-23.66,24-5.62,32.85-5.62,32.85v3l-.52.12-.33.09c-.35.09-.69.19-1,.3l-.4.12-1,.37-.28.11c-.43.17-.86.35-1.28.54l-.19.09c-.36.17-.71.35-1.05.53l-.34.18-.92.53-.29.18a23.46,23.46,0,0,0-2.26,1.58l-.27.22c-.28.22-.54.45-.8.68l-.28.25c-.31.27-.61.56-.9.85l-.09.09c-.33.32-.64.66-.94,1l-.23.27c-.22.25-.44.51-.65.78l-.27.35c-.21.26-.4.53-.6.81l-.16.22h0C315,425.4,298.46,506.26,276.64,472.4c0,0-11.58-10.53-12.94,3.09,30.25,60,45.94-34.42,116.24-6.48,0,.17,0,.33,0,.5a.88.88,0,0,0,0,.17l-.09,0c0,.06,0,.1.07.16v.07c0,.6-.07,1.2-.07,1.81a25.16,25.16,0,0,0,12.13,21.55,24.52,24.52,0,0,0,3.95,1.94v6H375.7s-1.7,18.55,18.21,28.26v97.4l-.33,93.92H368.72s-.34,14.29-11.06,13.44V740H330.77s-4.77,1.36-6.47,5.62v19.57H487.19V746.47s-3.57-5.45-7-7H451.28V734s-9.19,1.36-10.9-13.27H417.23V528.94S436,520.34,436,500.38H412.64v-4.63a25.21,25.21,0,0,0,17.53-24c0-.61,0-1.21-.07-1.81a.17.17,0,0,1,0-.07l.08-.16-.09,0c0-.06,0-.12,0-.17s0-.33,0-.5c70.3-27.94,86,66.46,116.24,6.48C544.89,461.87,533.32,472.4,533.32,472.4ZM405,480.85a9.11,9.11,0,1,1,9.11-9.11A9.11,9.11,0,0,1,405,480.85Z" transform="translate(-226.89 -411.32)" style="fill: #fff"/>
</svg>
