<svg id="Calque_3" data-name="Calque 3" xmlns="http://www.w3.org/2000/svg" viewBox="0 0 70.78 119.73">
  <path d="M277.72,414.13c-.57-3,.19-7.37-1.27-10.09a41,41,0,0,1-4.09-12.25c-.72-2.92-10.29-15.86-12.51-9.32-2.11.16-3.89,1.85-6,1.53-1.39.69-2.46,2.83-3.19,4.34-2.16,1-2.21,1.26-2,3.7.28,1.5,1.7,2.24,1.91,3.7-2.37,7.83-14.82-3.63-19.27-4.72-2.27.62-2.68-10.81-3.2-11.74-2.3-6.38-.76-11.86,3.28-17.45,3.3-1.38,2.43,4,6.21,4.42,1.64-.54.24-3.07-.93-4.34-1.3-2.07-.33-3.85-.43-6,12.14-.31,13.11-14.78,4-16.26-8-.05-6.6,8.08-7.57,8.77-5.33.82-17.77,11-22.22,15.49-6.4,11.77,12.79,11.32-2.89,16.59-.42,1.49,2.8,3.36,4.08,3.73,2.72,0,3.52,2.94,2.43,4.7,5.07,6.53,4.07,6.07,4.21-.85.83-4.46,0-7.22,3.49-9.44l.73,11.05c.32,2.94,9.23,10.77,12.44,13.46a2.49,2.49,0,0,1,.74.33,2.53,2.53,0,0,1,.76.41c5.34,1,2.83,1.54.54,4.19a2.2,2.2,0,0,1-.33.41c-1.44,1.85-2.61,4.63-1.39,9-2.3,2.79-2.75,8.52-2.93,12.13-5.72,4.19-6.09,23.82-4.47,29.62,1,.25,26.3,0,26.3,0,.86-6.3-9.41-22.83-2.81-30.89,7.65-11.13,6.48-5.7,6.76,3.06a2.85,2.85,0,0,1,3.45-2.43c0,1.6.19,4-1.4,5,11.05-.55,2.07-.31,9.32-8-.41,5.6.81,1.35,4.34,2.17,2-2.93.86-7.24,2.55-10.35.48-2.22.61-1.62,1.53,0C278.81,417.47,277.75,414.75,277.72,414.13Z" transform="translate(-207.47 -339.7)" style="fill: #fff"/>
</svg>
