<svg id="Calque_2" data-name="Calque 2" xmlns="http://www.w3.org/2000/svg" viewBox="0 0 382.22 476.94">
  <path d="M201.06,502s79-.68,94-3.06,40.51-13.62,50-12.26,11.58,8.85,20.43,13.62,10.55,5.1,12.6,5.1,0,58.9,0,58.9S329.4,575.48,311.7,551c0,0-38.81,18-45.61-12.6,0,0-25.54,1.71-28.6-15.66S211.28,536.67,201.06,502Z" transform="translate(-201.06 -443.99)" style="fill: #fff"/>
  <path d="M351.19,610.89c64.2,3.64-11.3-69.93-52.76-15-12.36,26.83,22.46,44.66,34.72,53.49,0,0,28.94-21.44,33.7-20.08s-31-7.15-35.06-10.56C314.74,607.75,322.55,585.25,351.19,610.89Z" transform="translate(-201.06 -443.99)" style="fill: #fff"/>
  <path d="M486.78,595.86c-41.47-54.9-117,18.67-52.77,15,44.27-33.29,33.49,15.43-10.14,17.14-39.09.87-99.34,12.36-95.14,61.5,16.95,30.15,21.88,26,52.11,9.51-34.41-22.13-12.92-40.47,35.38-39.48C440.45,655.62,499.59,636.17,486.78,595.86Z" transform="translate(-201.06 -443.99)" style="fill: #fff"/>
  <path d="M412.47,665.86s17.36.26,37.79-8.42c13.69,21.66,6.35,48.63-28.6,62.3,0,0-47.75,12.51-48.77,25.27,0,0-3.32,9.45,10.73,16.6-15.95,6.67-34.81,26.87-44.68-8.94C327.6,700.62,450.19,711.84,412.47,665.86Z" transform="translate(-201.06 -443.99)" style="fill: #fff"/>
  <path d="M401,733.52c18.75-4.79,32.55-21.62,43.15,6.64,13.7,31.76-43.91,47.29-60.26,54.38-5.87,4.09-7.91,8.94-3.57,15.58,0,0-16.34,10-17.36,11.74-10.68,5.18-16.76-23-4.6-35.48C360.44,771.09,448.62,760.27,401,733.52Z" transform="translate(-201.06 -443.99)" style="fill: #fff"/>
  <path d="M398.92,793.27C420,786.16,437,775.86,428.81,813.7c-6.64,10.46-24.26,20.16-44.17,25.53,0,0-4.34-1.28-3.07,16.85,0,0-3.83,5.1-5.1,5.1-58.31-37.33,46.54-46.1,24.76-66.64" transform="translate(-201.06 -443.99)" style="fill: #fff"/>
  <path d="M398.92,840s21.21-3.83,25.55-10.72c0,0,7.91,5.1,2.81,16.85-16.91,22.72-52.62,29.75-72.26,39.32C348.18,875.18,416.42,854.1,398.92,840Z" transform="translate(-201.06 -443.99)" style="fill: #fff"/>
  <path d="M400.72,872.93l13-7.41s18.64,13,18.9,14.81,5.87,3.58,0,3.07S400.72,872.93,400.72,872.93Z" transform="translate(-201.06 -443.99)" style="fill: #fff"/>
  <path d="M386.17,877.52s2,37.79,3.06,40.34.54,3.07,2.57,3.07,4.44.25,5.66-2,3.26-46,3.26-46Z" transform="translate(-201.06 -443.99)" style="fill: #fff"/>
  <path d="M386.17,843.82l13.7-3s-.68,7.06-13.7,13.95" transform="translate(-201.06 -443.99)" style="fill: #fff"/>
  <path d="M386.17,807.57s11.82-3.32,13.7-4.86v-6.89l-13.7,4.34Z" transform="translate(-201.06 -443.99)" style="fill: #fff"/>
  <polyline points="185.11 293.36 199.91 289.53 199.91 311.49 185.11 316.6" style="fill: #fff"/>
  <polyline points="185.11 224.68 199.91 222.89 199.91 247.4 185.11 254.3" style="fill: #fff"/>
  <polyline points="183.83 181.02 199.91 181.02 201.19 20.68 183.83 19.91" style="fill: #fff"/>
  <ellipse cx="192.51" cy="22.6" rx="24.51" ry="22.6" style="fill: #fff"/>
  <path d="M583.28,502s-79-.68-93.95-3.06-40.51-13.62-50.05-12.26-11.57,8.85-20.42,13.62-10.56,5.1-12.6,5.1,0,58.9,0,58.9,48.68,11.23,66.39-13.28c0,0,38.8,18,45.61-12.6,0,0,25.53,1.71,28.6-15.66S573.07,536.67,583.28,502Z" transform="translate(-201.06 -443.99)" style="fill: #fff"/>
</svg>
